<?xml version="1.0" encoding="UTF-8"?><svg id="Layer_1" xmlns="http://www.w3.org/2000/svg" viewBox="0 0 561.94 593.3"><defs><style>.cls-1{fill:none;stroke:#c00;stroke-width:.75px;}</style></defs><path class="cls-1" d="M361.56,362.92h20v12h40v-12h20v12h40v-12h20v12h40v-12h20v10h-12v20h12v10h-12v20h12v10h-12v20h12v10h-20v-12h-40v12h-20v-12h-40v12h-20v-12h-40v12h-20v-10h12v-20h-12v-10h12v-20h-12v-10h12v-20h-12v-10Z"/><path class="cls-1" d="M361.56,492.92h20v12h40v-12h20v12h40v-12h20v12h40v-12h20v10h-12v20h12v10h-12v20h12v10h-12v20h12v10h-20v-12h-40v12h-20v-12h-40v12h-20v-12h-40v12h-20v-10h12v-20h-12v-10h12v-20h-12v-10h12v-20h-12v-10Z"/><path class="cls-1" d="M261.56,328.81v-31.89h-12v-60h12v-40h-12v-60h12v-40h-12v-60h12v-20h20V4.92h40v12h20V4.92h40v12h20V4.92h40v12h20v20h12v60h-12v40h12v60h-12v40h12v60h-12v20"/><line class="cls-1" x1="261.56" y1="328.81" x2="461.56" y2="328.81"/><line class="cls-1" x1="461.56" y1="316.92" x2="461.56" y2="328.81"/><path class="cls-1" d="M324.38,454.78h-32v-12h-60v12h-40v-12h-60v12h-40v-12h-60v12H12.38v-10H.38v-20h12v-10H.38v-20h12v-10H.38v-20h12v-10h20v12h60v-12h40v12h60v-12h40v12h60v-12h32"/><line class="cls-1" x1="324.38" y1="354.78" x2="324.38" y2="454.78"/><path class="cls-1" d="M324.38,588.44h-32v-12h-60v12h-40v-12h-60v12h-40v-12h-60v12H12.38v-10H.38v-20h12v-10H.38v-20h12v-10H.38v-20h12v-10h20v12h60v-12h40v12h60v-12h40v12h60v-12h32"/><line class="cls-1" x1="324.38" y1="488.44" x2="324.38" y2="588.44"/><path class="cls-1" d="M12.38,324.27v-31.89H.38v-60h12v-40H.38v-60h12v-40H.38v-60h12V12.38h20V.38h40v12h20V.38h40v12h20V.38h40v12h20v20h12v60h-12v40h12v60h-12v40h12v60h-12v20"/><line class="cls-1" x1="12.38" y1="324.27" x2="212.38" y2="324.27"/><line class="cls-1" x1="212.38" y1="312.38" x2="212.38" y2="324.27"/></svg>