<svg xmlns="http://www.w3.org/2000/svg" width="660" height="1099" viewBox="0 0 660 1099">
<rect width="100%" height="100%" fill="white"/>
<path d="M48,48 L68,48 L68,36 L108,36 L108,48 L128,48 L128,36 L168,36 L168,48 L188,48 L188,36 L228,36 L228,48 L248,48 L248,68 L260,68 L260,128 L248,128 L248,168 L260,168 L260,228 L248,228 L248,268 L260,268 L260,328 L248,328 L248,360 L48,360 L48,328 L36,328 L36,268 L48,268 L48,228 L36,228 L36,168 L48,168 L48,128 L36,128 L36,68 L48,68 L48,48 Z" fill="none" stroke="#CC0000" stroke-width="0.75" stroke-linejoin="miter"/>
<path d="M294,48 L314,48 L314,36 L354,36 L354,48 L374,48 L374,36 L414,36 L414,48 L434,48 L434,36 L474,36 L474,48 L494,48 L494,68 L506,68 L506,128 L494,128 L494,168 L506,168 L506,228 L494,228 L494,268 L506,268 L506,328 L494,328 L494,360 L294,360 L294,328 L282,328 L282,268 L294,268 L294,228 L282,228 L282,168 L294,168 L294,128 L282,128 L282,68 L294,68 L294,48 Z" fill="none" stroke="#CC0000" stroke-width="0.75" stroke-linejoin="miter"/>
<path d="M48,394 L68,394 L68,406 L128,406 L128,394 L168,394 L168,406 L228,406 L228,394 L268,394 L268,406 L328,406 L328,394 L360,394 L360,494 L348,494 L328,494 L328,482 L268,482 L268,494 L228,494 L228,482 L168,482 L168,494 L128,494 L128,482 L68,482 L68,494 L48,494 L48,484 L36,484 L36,464 L48,464 L48,454 L36,454 L36,434 L48,434 L48,424 L36,424 L36,404 L48,404 L48,394 Z" fill="none" stroke="#CC0000" stroke-width="0.75" stroke-linejoin="miter"/>
<path d="M48,524 L68,524 L68,536 L128,536 L128,524 L168,524 L168,536 L228,536 L228,524 L268,524 L268,536 L328,536 L328,524 L360,524 L360,624 L348,624 L328,624 L328,612 L268,612 L268,624 L228,624 L228,612 L168,612 L168,624 L128,624 L128,612 L68,612 L68,624 L48,624 L48,614 L36,614 L36,594 L48,594 L48,584 L36,584 L36,564 L48,564 L48,554 L36,554 L36,534 L48,534 L48,524 Z" fill="none" stroke="#CC0000" stroke-width="0.75" stroke-linejoin="miter"/>
<path d="M394,394 L414,394 L414,406 L454,406 L454,394 L474,394 L474,406 L514,406 L514,394 L534,394 L534,406 L574,406 L574,394 L594,394 L594,404 L582,404 L582,424 L594,424 L594,434 L582,434 L582,454 L594,454 L594,464 L582,464 L582,484 L594,484 L594,494 L574,494 L574,482 L534,482 L534,494 L514,494 L514,482 L474,482 L474,494 L454,494 L454,482 L414,482 L414,494 L394,494 L394,484 L406,484 L406,464 L394,464 L394,454 L406,454 L406,434 L394,434 L394,424 L406,424 L406,404 L394,404 L394,394 Z" fill="none" stroke="#CC0000" stroke-width="0.75" stroke-linejoin="miter"/>
<path d="M51.5,700.0 L242.1,700.0 L242.1,715.8 L253.5,715.8 L253.5,745.4 L242.1,745.4 L242.1,765.2 L253.5,765.2 L253.5,794.8 L242.1,794.8 L242.1,814.5 L253.5,814.5 L253.5,844.2 L242.1,844.2 L242.1,854.1 L223.0,854.1 L223.0,860.0 L184.9,860.0 L184.9,854.1 L165.8,854.1 L165.8,860.0 L127.7,860.0 L127.7,854.1 L108.6,854.1 L108.6,860.0 L70.5,860.0 L70.5,854.1 L51.5,854.1 L51.5,844.2 L40.0,844.2 L40.0,814.5 L51.5,814.5 L51.5,794.8 L40.0,794.8 L40.0,765.2 L51.5,765.2 L51.5,745.4 L40.0,745.4 L40.0,715.8 L51.5,715.8 L51.5,700.0 Z" fill="none" stroke="#CC0000" stroke-width="0.75" stroke-linejoin="miter"/>
<path d="M284.9,700.0 L475.5,700.0 L475.5,715.8 L487.0,715.8 L487.0,745.4 L475.5,745.4 L475.5,765.2 L487.0,765.2 L487.0,794.8 L475.5,794.8 L475.5,814.5 L487.0,814.5 L487.0,844.2 L475.5,844.2 L475.5,854.1 L456.5,854.1 L456.5,860.0 L418.4,860.0 L418.4,854.1 L399.3,854.1 L399.3,860.0 L361.2,860.0 L361.2,854.1 L342.1,854.1 L342.1,860.0 L304.0,860.0 L304.0,854.1 L284.9,854.1 L284.9,844.2 L273.5,844.2 L273.5,814.5 L284.9,814.5 L284.9,794.8 L273.5,794.8 L273.5,765.2 L284.9,765.2 L284.9,745.4 L273.5,745.4 L273.5,715.8 L284.9,715.8 L284.9,700.0 Z" fill="none" stroke="#CC0000" stroke-width="0.75" stroke-linejoin="miter"/>
<path d="M45.9,880.0 L55.8,880.0 L55.8,890.8 L85.4,890.8 L85.4,880.0 L105.2,880.0 L105.2,890.8 L134.8,890.8 L134.8,880.0 L154.5,880.0 L154.5,890.8 L184.2,890.8 L184.2,880.0 L194.1,880.0 L194.1,889.0 L200.0,889.0 L200.0,906.9 L194.1,906.9 L194.1,915.8 L200.0,915.8 L200.0,933.7 L194.1,933.7 L194.1,942.7 L200.0,942.7 L200.0,960.6 L194.1,960.6 L194.1,969.5 L184.2,969.5 L184.2,958.8 L154.5,958.8 L154.5,969.5 L134.8,969.5 L134.8,958.8 L105.2,958.8 L105.2,969.5 L85.4,969.5 L85.4,958.8 L55.8,958.8 L55.8,969.5 L45.9,969.5 L45.9,960.6 L40.0,960.6 L40.0,942.7 L45.9,942.7 L45.9,933.7 L40.0,933.7 L40.0,915.8 L45.9,915.8 L45.9,906.9 L40.0,906.9 L40.0,889.0 L45.9,889.0 L45.9,880.0 Z" fill="none" stroke="#CC0000" stroke-width="0.75" stroke-linejoin="miter"/>
<path d="M225.9,880.0 L235.8,880.0 L235.8,890.7 L265.4,890.7 L265.4,880.0 L285.2,880.0 L285.2,890.7 L314.8,890.7 L314.8,880.0 L334.5,880.0 L334.5,890.7 L364.2,890.7 L364.2,880.0 L374.1,880.0 L374.1,888.9 L380.0,888.9 L380.0,906.8 L374.1,906.8 L374.1,915.8 L380.0,915.8 L380.0,933.7 L374.1,933.7 L374.1,942.6 L380.0,942.6 L380.0,960.5 L374.1,960.5 L374.1,969.5 L364.2,969.5 L364.2,958.7 L334.5,958.7 L334.5,969.5 L314.8,969.5 L314.8,958.7 L285.2,958.7 L285.2,969.5 L265.4,969.5 L265.4,958.7 L235.8,958.7 L235.8,969.5 L225.9,969.5 L225.9,960.5 L220.0,960.5 L220.0,942.6 L225.9,942.6 L225.9,933.7 L220.0,933.7 L220.0,915.8 L225.9,915.8 L225.9,906.8 L220.0,906.8 L220.0,888.9 L225.9,888.9 L225.9,880.0 Z" fill="none" stroke="#CC0000" stroke-width="0.75" stroke-linejoin="miter"/>
<path d="M400.0,880.0 L419.1,880.0 L419.1,890.7 L457.2,890.7 L457.2,880.0 L476.3,880.0 L476.3,890.7 L514.4,890.7 L514.4,880.0 L533.5,880.0 L533.5,890.7 L571.6,890.7 L571.6,880.0 L590.7,880.0 L590.7,888.9 L579.2,888.9 L579.2,906.8 L590.7,906.8 L590.7,915.8 L579.2,915.8 L579.2,933.7 L590.7,933.7 L590.7,942.6 L579.2,942.6 L579.2,960.5 L590.7,960.5 L590.7,969.5 L571.6,969.5 L571.6,958.7 L533.5,958.7 L533.5,969.5 L514.4,969.5 L514.4,958.7 L476.3,958.7 L476.3,969.5 L457.2,969.5 L457.2,958.7 L419.1,958.7 L419.1,969.5 L400.0,969.5 L400.0,960.5 L411.5,960.5 L411.5,942.6 L400.0,942.6 L400.0,933.7 L411.5,933.7 L411.5,915.8 L400.0,915.8 L400.0,906.8 L411.5,906.8 L411.5,888.9 L400.0,888.9 L400.0,880.0 Z" fill="none" stroke="#CC0000" stroke-width="0.75" stroke-linejoin="miter"/>
<path d="M40.0,989.5 L230.7,989.5 L230.7,1079.0 L40.0,1079.0 Z" fill="none" stroke="#0066CC" stroke-width="0.75" stroke-linejoin="miter"/>

<text x="36" y="26" font-size="12" fill="#000000">Outer sleeve (224x324x100mm, bottom panel removed)</text>
<text x="40" y="975.5" font-size="12" fill="#000000">Inner box (214x160x90mm, ~4.5mm clearance/dim, flat top in blue)</text>

</svg>