<svg xmlns="http://www.w3.org/2000/svg" width="241.800mm" height="201.800mm" viewBox="0 0 241.800 201.800">
  <title>Inner drawer - LARGE FACE OPEN - cut only</title>
  <metadata><![CDATA[{
  "units": "mm",
  "material_thickness_mm": 3.175,
  "assumed_kerf_mm": 0.15,
  "clearance_each_sliding_side_mm": 0.25,
  "outer_box_external_mm": {
    "width": 110.0,
    "height": 70.0,
    "depth": 45.0
  },
  "outer_shell_internal_available_mm": {
    "slide_length": 106.825,
    "height": 63.65,
    "depth": 38.65
  },
  "drawer_body_external_mm": {
    "slide_length": 106.325,
    "height": 63.15,
    "depth": 38.15
  },
  "drawer_open_face_mm": "slide_length x height",
  "drawer_open_face_area_mm2": 6714.424,
  "verification": "closed paths only; no self-intersections; no cross-panel intersections in flat layout",
  "panel_names": [
    "drawer_back_large_panel_opposite_open_face",
    "drawer_top_depth_rail",
    "drawer_bottom_depth_rail",
    "drawer_left_end_wall",
    "drawer_right_pull_wall"
  ]
}]]></metadata>
  <g id="CUT_PATHS" fill="none" stroke="#000000" stroke-width="0.1" stroke-linejoin="miter" stroke-linecap="butt">
    <path id="drawer_back_large_panel_opposite_open_face" d="M 8.000,11.175 L 11.651,11.175 L 11.651,14.350 L 22.654,14.350 L 22.654,11.175 L 33.656,11.175 L 33.656,14.350 L 44.659,14.350 L 44.659,11.175 L 55.661,11.175 L 55.661,14.350 L 66.664,14.350 L 66.664,11.175 L 77.666,11.175 L 77.666,14.350 L 88.669,14.350 L 88.669,11.175 L 99.671,11.175 L 99.671,14.350 L 110.674,14.350 L 110.674,11.175 L 114.325,11.175 L 114.325,14.826 L 111.150,14.826 L 111.150,22.805 L 114.325,22.805 L 114.325,30.783 L 111.150,30.783 L 111.150,38.761 L 114.325,38.761 L 114.325,46.739 L 111.150,46.739 L 111.150,54.717 L 114.325,54.717 L 114.325,62.695 L 111.150,62.695 L 111.150,70.674 L 114.325,70.674 L 114.325,74.325 L 110.674,74.325 L 110.674,71.150 L 99.671,71.150 L 99.671,74.325 L 88.669,74.325 L 88.669,71.150 L 77.666,71.150 L 77.666,74.325 L 66.664,74.325 L 66.664,71.150 L 55.661,71.150 L 55.661,74.325 L 44.659,74.325 L 44.659,71.150 L 33.656,71.150 L 33.656,74.325 L 22.654,74.325 L 22.654,71.150 L 11.651,71.150 L 11.651,74.325 L 8.000,74.325 L 8.000,70.674 L 11.175,70.674 L 11.175,62.695 L 8.000,62.695 L 8.000,54.717 L 11.175,54.717 L 11.175,46.739 L 8.000,46.739 L 8.000,38.761 L 11.175,38.761 L 11.175,30.783 L 8.000,30.783 L 8.000,22.805 L 11.175,22.805 L 11.175,14.826 L 8.000,14.826 L 8.000,14.826 Z"/>
    <path id="drawer_top_depth_rail" d="M 8.000,94.325 L 11.651,94.325 L 11.651,91.150 L 22.654,91.150 L 22.654,94.325 L 33.656,94.325 L 33.656,91.150 L 44.659,91.150 L 44.659,94.325 L 55.661,94.325 L 55.661,91.150 L 66.664,91.150 L 66.664,94.325 L 77.666,94.325 L 77.666,91.150 L 88.669,91.150 L 88.669,94.325 L 99.671,94.325 L 99.671,91.150 L 110.674,91.150 L 110.674,94.325 L 114.325,94.325 L 114.325,97.976 L 111.150,97.976 L 111.150,104.146 L 114.325,104.146 L 114.325,110.315 L 111.150,110.315 L 111.150,116.485 L 114.325,116.485 L 114.325,122.654 L 111.150,122.654 L 111.150,128.824 L 114.325,128.824 L 114.325,132.475 L 8.000,132.475 L 8.000,128.824 L 11.175,128.824 L 11.175,122.654 L 8.000,122.654 L 8.000,116.485 L 11.175,116.485 L 11.175,110.315 L 8.000,110.315 L 8.000,104.146 L 11.175,104.146 L 11.175,97.976 L 8.000,97.976 Z"/>
    <path id="drawer_bottom_depth_rail" d="M 8.000,152.475 L 114.325,152.475 L 114.325,156.126 L 111.150,156.126 L 111.150,162.296 L 114.325,162.296 L 114.325,168.465 L 111.150,168.465 L 111.150,174.635 L 114.325,174.635 L 114.325,180.804 L 111.150,180.804 L 111.150,186.974 L 114.325,186.974 L 114.325,190.625 L 110.674,190.625 L 110.674,193.800 L 99.671,193.800 L 99.671,190.625 L 88.669,190.625 L 88.669,193.800 L 77.666,193.800 L 77.666,190.625 L 66.664,190.625 L 66.664,193.800 L 55.661,193.800 L 55.661,190.625 L 44.659,190.625 L 44.659,193.800 L 33.656,193.800 L 33.656,190.625 L 22.654,190.625 L 22.654,193.800 L 11.651,193.800 L 11.651,190.625 L 8.000,190.625 L 8.000,186.974 L 11.175,186.974 L 11.175,180.804 L 8.000,180.804 L 8.000,174.635 L 11.175,174.635 L 11.175,168.465 L 8.000,168.465 L 8.000,162.296 L 11.175,162.296 L 11.175,156.126 L 8.000,156.126 Z"/>
    <path id="drawer_left_end_wall" d="M 134.325,11.175 L 137.976,11.175 L 137.976,8.000 L 144.146,8.000 L 144.146,11.175 L 150.315,11.175 L 150.315,8.000 L 156.485,8.000 L 156.485,11.175 L 162.654,11.175 L 162.654,8.000 L 168.824,8.000 L 168.824,11.175 L 172.475,11.175 L 172.475,74.325 L 168.824,74.325 L 168.824,77.500 L 162.654,77.500 L 162.654,74.325 L 156.485,74.325 L 156.485,77.500 L 150.315,77.500 L 150.315,74.325 L 144.146,74.325 L 144.146,77.500 L 137.976,77.500 L 137.976,74.325 L 134.325,74.325 L 134.325,70.674 L 131.150,70.674 L 131.150,62.695 L 134.325,62.695 L 134.325,54.717 L 131.150,54.717 L 131.150,46.739 L 134.325,46.739 L 134.325,38.761 L 131.150,38.761 L 131.150,30.783 L 134.325,30.783 L 134.325,22.805 L 131.150,22.805 L 131.150,14.826 L 134.325,14.826 L 134.325,14.826 Z"/>
    <path id="drawer_right_pull_wall" d="M 192.475,11.175 L 196.126,11.175 L 196.126,8.000 L 202.296,8.000 L 202.296,11.175 L 208.465,11.175 L 208.465,8.000 L 214.635,8.000 L 214.635,11.175 L 220.804,11.175 L 220.804,8.000 L 226.974,8.000 L 226.974,11.175 L 230.625,11.175 L 230.625,14.826 L 233.800,14.826 L 233.800,22.805 L 230.625,22.805 L 230.625,30.783 L 233.800,30.783 L 233.800,38.761 L 230.625,38.761 L 230.625,46.739 L 233.800,46.739 L 233.800,54.717 L 230.625,54.717 L 230.625,62.695 L 233.800,62.695 L 233.800,70.674 L 230.625,70.674 L 230.625,74.325 L 226.974,74.325 L 226.974,77.500 L 220.804,77.500 L 220.804,74.325 L 214.635,74.325 L 214.635,77.500 L 208.465,77.500 L 208.465,74.325 L 202.296,74.325 L 202.296,77.500 L 196.126,77.500 L 196.126,74.325 L 192.475,74.325 Z"/>
  </g>
</svg>