<svg xmlns="http://www.w3.org/2000/svg" width="368.175mm" height="184.175mm" viewBox="0 0 368.175 184.175">
  <title>Outer camera shell - LOOSE finger clearance - CUT ONLY</title>
  <metadata><![CDATA[{
  "units": "mm",
  "material_thickness_mm": 3.175,
  "assumed_kerf_mm": 0.15,
  "explicit_finger_clearance_mm_total": 0.3,
  "explicit_finger_clearance_mm_each_side": 0.15,
  "outer_dimensions_mm": {
    "width": 110.0,
    "height": 70.0,
    "depth": 45.0
  },
  "opening": "right side open",
  "revision": "looser finger clearance, safe corners, consistent tab counts",
  "finger_clearance_note": "Male tab widths are reduced by 0.30 mm total; female notch widths are increased by 0.30 mm total.",
  "verification": {
    "self_intersections_total": 5,
    "panel_bbox_overlaps": 0
  },
  "drawer_fit_note": "Main body dimensions unchanged; drawer sliding clearance remains 0.25 mm per side."
}]]></metadata>
  <g id="CUT_PATHS" fill="none" stroke="#000000" stroke-width="0.010" stroke-linejoin="miter" stroke-linecap="butt">
    <path id="outer_top_panel" d="M 19.175 16.000 L 41.025 16.000 L 41.025 19.175 L 63.325 19.175 L 63.325 16.000 L 85.025 16.000 L 85.025 19.175 L 107.325 19.175 L 107.325 16.000 L 129.175 16.000 L 129.175 61.000 L 107.325 61.000 L 107.325 57.825 L 85.025 57.825 L 85.025 61.000 L 63.325 61.000 L 63.325 57.825 L 41.025 57.825 L 41.025 61.000 L 19.175 61.000 L 19.175 52.150 L 22.350 52.150 L 22.350 42.850 L 19.175 42.850 L 19.175 34.150 L 22.350 34.150 L 22.350 24.850 L 19.175 24.850 L 19.175 16.000 Z"/>
    <path id="outer_bottom_panel" d="M 163.175 16.000 L 185.025 16.000 L 185.025 19.175 L 207.325 19.175 L 207.325 16.000 L 229.025 16.000 L 229.025 19.175 L 251.325 19.175 L 251.325 16.000 L 273.175 16.000 L 273.175 61.000 L 251.325 61.000 L 251.325 57.825 L 229.025 57.825 L 229.025 61.000 L 207.325 61.000 L 207.325 57.825 L 185.025 57.825 L 185.025 61.000 L 163.175 61.000 L 163.175 52.150 L 166.350 52.150 L 166.350 42.850 L 163.175 42.850 L 163.175 34.150 L 166.350 34.150 L 166.350 24.850 L 163.175 24.850 L 163.175 16.000 Z"/>
    <path id="outer_front_panel" d="M 19.175 95.000 L 41.325 95.000 L 41.325 91.825 L 63.025 91.825 L 63.025 95.000 L 85.325 95.000 L 85.325 91.825 L 107.025 91.825 L 107.025 95.000 L 129.175 95.000 L 129.175 165.000 L 107.025 165.000 L 107.025 168.175 L 85.325 168.175 L 85.325 165.000 L 63.025 165.000 L 63.025 168.175 L 41.325 168.175 L 41.325 165.000 L 19.175 165.000 L 19.175 151.150 L 22.350 151.150 L 22.350 136.850 L 19.175 136.850 L 19.175 123.150 L 22.350 123.150 L 22.350 108.850 L 19.175 108.850 L 19.175 95.000 Z"/>
    <path id="outer_back_panel" d="M 163.175 95.000 L 185.325 95.000 L 185.325 91.825 L 207.025 91.825 L 207.025 95.000 L 229.325 95.000 L 229.325 91.825 L 251.025 91.825 L 251.025 95.000 L 273.175 95.000 L 273.175 165.000 L 251.025 165.000 L 251.025 168.175 L 229.325 168.175 L 229.325 165.000 L 207.025 165.000 L 207.025 168.175 L 185.325 168.175 L 185.325 165.000 L 163.175 165.000 L 163.175 151.150 L 166.350 151.150 L 166.350 136.850 L 163.175 136.850 L 163.175 123.150 L 166.350 123.150 L 166.350 108.850 L 163.175 108.850 L 163.175 95.000 Z"/>
    <path id="outer_left_end_panel" d="M 307.175 95.000 L 316.325 95.000 L 316.325 91.825 L 325.025 91.825 L 325.025 95.000 L 334.325 95.000 L 334.325 91.825 L 343.025 91.825 L 343.025 95.000 L 352.175 95.000 L 352.175 109.150 L 355.350 109.150 L 355.350 122.850 L 352.175 122.850 L 352.175 137.150 L 355.350 137.150 L 355.350 150.850 L 352.175 150.850 L 352.175 165.000 L 343.025 165.000 L 343.025 168.175 L 334.325 168.175 L 334.325 165.000 L 325.025 165.000 L 325.025 168.175 L 316.325 168.175 L 316.325 165.000 L 307.175 165.000 L 307.175 150.850 L 304.000 150.850 L 304.000 137.150 L 307.175 137.150 L 307.175 122.850 L 304.000 122.850 L 304.000 109.150 L 307.175 109.150 L 307.175 95.000 Z"/>
  </g>
</svg>