<?xml version="1.0" encoding="UTF-8"?>
<svg id="Layer_1" xmlns="http://www.w3.org/2000/svg" version="1.1" viewBox="0 0 790.23 462.01">
  <!-- Generator: Adobe Illustrator 30.6.0, SVG Export Plug-In . SVG Version: 2.1.4 Build 109)  -->
  <defs>
    <style>
      .st0, .st1 {
        fill: none;
        stroke: red;
        stroke-miterlimit: 11.34;
      }

      .st1 {
        stroke-width: .03px;
      }
    </style>
  </defs>
  <path id="outer_front_panel" class="st0" d="M459.92,130.12h62.79v-9h61.51v9h63.21v-9h61.51v9h80.79v198.43h-80.79v9h-61.51v-9h-63.21v9h-61.51v-9h-62.79v-39.26h9v-40.54h-9v-38.83h9v-40.54h-9v-39.26h0Z"/>
  <path id="outer_back_panel" class="st0" d="M312.31,328.55h-62.79v9h-61.51v-9h-63.21v9h-61.51v-9H.5v-198.43h62.79v-9h61.51v9h63.21v-9h61.51v9h62.79v39.26h-9v40.54h9v38.83h-9v40.54h9v39.26h0Z"/>
  <path id="outer_left_end_panel1" class="st1" d="M789.65,130.12"/>
  <path id="outer_left_end_panel2" class="st1" d="M789.65,120.09"/>
  <path class="st1" d="M744.51,121.12"/>
  <path class="st1" d="M760.88,121.12"/>
  <path class="st1" d="M735.12,346.55"/>
  <line class="st0" x1="339.27" y1="328.55" x2="331.33" y2="328.55"/>
  <g>
    <g>
      <path id="outer_left_end_panel" class="st0" d="M440.89,328.55h-25.94v9h-24.66v-9h-26.36v9h-24.66v-9"/>
      <path id="outer_left_end_panel3" data-name="outer_left_end_panel" class="st0" d="M440.89,170.24h9v38.83h-9v40.54h9v38.83h-9"/>
      <path id="outer_left_end_panel4" data-name="outer_left_end_panel" class="st0" d="M339.28,130.07v-9.75h24.66v9.75h26.36v-9.75h24.66v9.75h25.94"/>
      <path id="uuid-8b64f10e-7528-4e7f-a846-4639e6d3341f" data-name="outer_left_end_panel3" class="st0" d="M331.33,328.17v-40.11h-9v-38.83h9v-40.54h-9v-38.83h9v-40.16"/>
    </g>
    <line class="st0" x1="339.28" y1="130.07" x2="331.34" y2="130.07"/>
  </g>
  <g>
    <line class="st0" x1="459.92" y1="461.51" x2="459.92" y2="454.42"/>
    <g>
      <g>
        <path id="outer_top_panel" class="st0" d="M789.73,461.51h-79.94v-9h-63.21v9h-61.51v-9h-63.21v9h-61.94"/>
        <path id="outer_top_panel1" class="st0" d="M459.92,454.42h9v-26.36h-9v-24.66h9v-26.36h-9v-25.09h61.94v9h63.21v-9h61.51v9h63.21v-9h79.94"/>
      </g>
      <line class="st0" x1="789.73" y1="461.51" x2="789.73" y2="351.95"/>
    </g>
  </g>
  <g>
    <line class="st0" x1="459.92" y1=".5" x2="459.92" y2="7.59"/>
    <g>
      <g>
        <path id="outer_top_panel2" class="st0" d="M459.92.5h61.94v9h63.21V.5h61.51v9h63.21V.5h79.94"/>
        <path id="outer_top_panel3" class="st0" d="M789.73,110.06h-79.94v-9h-63.21v9h-61.51v-9h-63.21v9h-61.94v-25.09h9v-26.36h-9v-24.66h9V7.59h-9"/>
      </g>
      <line class="st0" x1="789.73" y1=".5" x2="789.73" y2="110.06"/>
    </g>
  </g>
  <path id="outer_back_panel1" data-name="outer_back_panel" class="st0" d="M317.32,129.7"/>
  <path id="uuid-06e0f1b0-41a7-44ee-a930-4c4b263d0109" data-name="outer_left_end_panel3" class="st0" d="M440.89,169.86v-40.16"/>
  <path id="outer_back_panel2" data-name="outer_back_panel" class="st0" d="M324.17,337.17"/>
  <path id="outer_back_panel3" data-name="outer_back_panel" class="st0" d="M324.17,328.17"/>
  <path id="uuid-b62d1c3b-ff41-494b-8b69-8afd12448d56" data-name="outer_left_end_panel3" class="st0" d="M440.89,328.55v-40.11"/>
</svg>