<?xml version="1.0" encoding="UTF-8"?>
<svg id="Layer_1" xmlns="http://www.w3.org/2000/svg" version="1.1" viewBox="0 0 790.23 462.01">
  <!-- Generator: Adobe Illustrator 30.6.0, SVG Export Plug-In . SVG Version: 2.1.4 Build 109)  -->
  <defs>
    <style>
      .st0, .st1 {
        fill: none;
        stroke: red;
        stroke-miterlimit: 11.34;
      }

      .st1 {
        stroke-width: .03px;
      }
    </style>
  </defs>
  <path id="outer_front_panel" class="st0" d="M459.92,130.12h62.79v-9h61.51v9h63.21v-9h61.51v9h80.79v198.43h-80.79v9h-61.51v-9h-63.21v9h-61.51v-9h-62.79v-39.26h9v-40.54h-9v-38.83h9v-40.54h-9v-39.26Z"/>
  <path id="outer_back_panel" class="st0" d="M312.31,328.55h-62.79s0,9,0,9h-61.51v-9s-63.21,0-63.21,0v9h-61.51v-9s-62.79,0-62.79,0v-198.43h62.79s0-9,0-9h61.51v9s63.21,0,63.21,0v-9h61.51v9s62.79,0,62.79,0v39.26h-9s0,40.54,0,40.54h9v38.83h-9s0,40.54,0,40.54h9v39.26h0Z"/>
  <path id="outer_left_end_panel1" class="st1" d="M789.65,130.12"/>
  <path id="outer_left_end_panel2" class="st1" d="M789.65,120.09"/>
  <path class="st1" d="M744.51,121.12"/>
  <path class="st1" d="M760.88,121.12"/>
  <path class="st1" d="M735.12,346.55"/>
  <g>
    <line class="st0" x1="339.27" y1="337.55" x2="331.33" y2="337.55"/>
    <g>
      <g>
        <path id="outer_left_end_panel" class="st0" d="M339.27,121.87v-9.75s24.66,0,24.66,0v9.75h26.36v-9.75s24.66,0,24.66,0v9.75h25.94s0,48.37,0,48.37h9s0,38.83,0,38.83h-9v40.54h9s0,38.83,0,38.83h-9v49.11s-25.94,0-25.94,0v9s-24.66,0-24.66,0v-9h-26.36v9s-24.66,0-24.66,0v-9"/>
        <path id="outer_left_end_panel3" data-name="outer_left_end_panel" class="st0" d="M331.33,337.17v-49.11h-9s0-38.83,0-38.83h9v-40.54h-9s0-38.83,0-38.83h9v-48.37"/>
      </g>
      <line class="st0" x1="339.27" y1="121.87" x2="331.33" y2="121.87"/>
    </g>
  </g>
  <g>
    <line class="st0" x1="459.92" y1="461.51" x2="459.92" y2="454.42"/>
    <g>
      <g>
        <path id="outer_top_panel" class="st0" d="M789.73,461.51h-79.94s0-9,0-9h-63.21v9s-61.51,0-61.51,0v-9h-63.21v9s-61.94,0-61.94,0"/>
        <path id="outer_top_panel1" data-name="outer_top_panel" class="st0" d="M459.92,454.42h9v-26.36h-9s0-24.66,0-24.66h9v-26.36h-9s0-25.09,0-25.09h61.94s0,9,0,9h63.21v-9s61.51,0,61.51,0v9h63.21v-9s79.94,0,79.94,0"/>
      </g>
      <line class="st0" x1="789.73" y1="461.51" x2="789.73" y2="351.95"/>
    </g>
  </g>
  <g>
    <line class="st0" x1="459.92" y1=".5" x2="459.92" y2="7.59"/>
    <g>
      <g>
        <path id="outer_top_panel2" data-name="outer_top_panel" class="st0" d="M459.92.5h61.94v9s63.21,0,63.21,0V.5h61.51v9s63.21,0,63.21,0V.5h79.94"/>
        <path id="outer_top_panel3" data-name="outer_top_panel" class="st0" d="M789.73,110.06h-79.94v-9s-63.21,0-63.21,0v9h-61.51v-9s-63.21,0-63.21,0v9h-61.94v-25.09h9s0-26.36,0-26.36h-9v-24.66h9s0-26.36,0-26.36h-9"/>
      </g>
      <line class="st0" x1="789.73" y1=".5" x2="789.73" y2="110.06"/>
    </g>
  </g>
</svg>