<?xml version="1.0" encoding="UTF-8"?>
<svg id="Layer_1" xmlns="http://www.w3.org/2000/svg" version="1.1" viewBox="0 0 898.93 440.39">
  <!-- Generator: Adobe Illustrator 30.6.0, SVG Export Plug-In . SVG Version: 2.1.4 Build 109)  -->
  <defs>
    <style>
      .st0 {
        fill: none;
        stroke: red;
        stroke-miterlimit: 11.34;
        stroke-width: .03px;
      }
    </style>
  </defs>
  <path id="outer_top_panel" class="st0" d="M.01.01h61.94v9h63.21V.01h61.51v9h63.21V.01h61.94v127.56h-61.94v-9h-63.21v9h-61.51v-9h-63.21v9H.01v-25.09h9v-26.36H.01v-24.66h9v-26.36H.01V.01Z"/>
  <path id="outer_bottom_panel" class="st0" d="M408.2.01h61.94v9h63.21V.01h61.51v9h63.21V.01h61.94v127.56h-61.94v-9h-63.21v9h-61.51v-9h-63.21v9h-61.94v-25.09h9v-26.36h-9v-24.66h9v-26.36h-9V.01Z"/>
  <path id="outer_front_panel" class="st0" d="M.01,223.95h62.79v-9h61.51v9h63.21v-9h61.51v9h62.79v198.43h-62.79v9h-61.51v-9h-63.21v9h-61.51v-9H.01v-39.26h9v-40.54H.01v-38.83h9v-40.54H.01v-39.26Z"/>
  <path id="outer_back_panel" class="st0" d="M408.2,223.95h62.79v-9h61.51v9h63.21v-9h61.51v9h62.79v198.43h-62.79v9h-61.51v-9h-63.21v9h-61.51v-9h-62.79v-39.26h9v-40.54h-9v-38.83h9v-40.54h-9v-39.26Z"/>
  <path id="outer_left_end_panel" class="st0" d="M889.92,431.38h-25.94v9h-24.66v-9h-26.36v9h-24.66v-9h-25.94v-49.11h-9v-38.83h9v-40.54h-9v-38.83h9v-48.37h25.94v-9.75h24.66v9.75h26.36v-9.75h24.66v9.75h25.94v48.37h9v38.83h-9v40.54h9v38.83h-9v49.11Z"/>
  <path id="outer_left_end_panel1" data-name="outer_left_end_panel" class="st0" d="M380.08,214.95"/>
  <path id="outer_left_end_panel2" data-name="outer_left_end_panel" class="st0" d="M380.08,205.95"/>
  <path class="st0" d="M334.94,205.95"/>
  <path class="st0" d="M351.31,205.95"/>
  <path class="st0" d="M325.55,431.38"/>
</svg>