<svg xmlns="http://www.w3.org/2000/svg" width="660" height="1362" viewBox="0 0 660 1362">
<rect width="100%" height="100%" fill="white"/>
<path d="M48,48 L68,48 L68,36 L108,36 L108,48 L128,48 L128,36 L168,36 L168,48 L188,48 L188,36 L228,36 L228,48 L260,48 L260,328 L248,328 L248,348 L228,348 L228,360 L188,360 L188,348 L168,348 L168,360 L128,360 L128,348 L108,348 L108,360 L68,360 L68,348 L48,348 L48,328 L36,328 L36,268 L48,268 L48,228 L36,228 L36,168 L48,168 L48,128 L36,128 L36,68 L48,68 L48,48 Z" fill="none" stroke="#CC0000" stroke-width="0.75" stroke-linejoin="miter"/>
<path d="M294,48 L314,48 L314,36 L354,36 L354,48 L374,48 L374,36 L414,36 L414,48 L434,48 L434,36 L474,36 L474,48 L506,48 L506,328 L494,328 L494,348 L474,348 L474,360 L434,360 L434,348 L414,348 L414,360 L374,360 L374,348 L354,348 L354,360 L314,360 L314,348 L294,348 L294,328 L282,328 L282,268 L294,268 L294,228 L282,228 L282,168 L294,168 L294,128 L282,128 L282,68 L294,68 L294,48 Z" fill="none" stroke="#CC0000" stroke-width="0.75" stroke-linejoin="miter"/>
<path d="M48,394 L68,394 L68,406 L128,406 L128,394 L168,394 L168,406 L228,406 L228,394 L268,394 L268,406 L328,406 L328,394 L348,394 L348,404 L360,404 L360,424 L348,424 L348,434 L360,434 L360,454 L348,454 L348,464 L360,464 L360,484 L348,484 L348,494 L328,494 L328,482 L268,482 L268,494 L228,494 L228,482 L168,482 L168,494 L128,494 L128,482 L68,482 L68,494 L48,494 L48,484 L36,484 L36,464 L48,464 L48,454 L36,454 L36,434 L48,434 L48,424 L36,424 L36,404 L48,404 L48,394 Z" fill="none" stroke="#CC0000" stroke-width="0.75" stroke-linejoin="miter"/>
<path d="M394,394 L414,394 L414,406 L454,406 L454,394 L474,394 L474,406 L514,406 L514,394 L534,394 L534,406 L574,406 L574,394 L594,394 L594,494 L574,494 L574,482 L534,482 L534,494 L514,494 L514,482 L474,482 L474,494 L454,494 L454,482 L414,482 L414,494 L394,494 L394,484 L406,484 L406,464 L394,464 L394,454 L406,454 L406,434 L394,434 L394,424 L406,424 L406,404 L394,404 L394,394 Z" fill="none" stroke="#CC0000" stroke-width="0.75" stroke-linejoin="miter"/>
<path d="M394,524 L414,524 L414,536 L454,536 L454,524 L474,524 L474,536 L514,536 L514,524 L534,524 L534,536 L574,536 L574,524 L594,524 L594,624 L574,624 L574,612 L534,612 L534,624 L514,624 L514,612 L474,612 L474,624 L454,624 L454,612 L414,612 L414,624 L394,624 L394,614 L406,614 L406,594 L394,594 L394,584 L406,584 L406,564 L394,564 L394,554 L406,554 L406,534 L394,534 L394,524 Z" fill="none" stroke="#CC0000" stroke-width="0.75" stroke-linejoin="miter"/>
<path d="M48.6,700.0 L191.4,700.0 L191.4,731.0 L200.0,731.0 L200.0,789.1 L191.4,789.1 L191.4,827.8 L200.0,827.8 L200.0,885.8 L191.4,885.8 L191.4,924.5 L200.0,924.5 L200.0,982.6 L191.4,982.6 L191.4,1001.9 L177.2,1001.9 L177.2,1013.5 L148.6,1013.5 L148.6,1001.9 L134.3,1001.9 L134.3,1013.5 L105.7,1013.5 L105.7,1001.9 L91.4,1001.9 L91.4,1013.5 L62.9,1013.5 L62.9,1001.9 L48.6,1001.9 L48.6,982.6 L40.0,982.6 L40.0,924.5 L48.6,924.5 L48.6,885.8 L40.0,885.8 L40.0,827.8 L48.6,827.8 L48.6,789.1 L40.0,789.1 L40.0,731.0 L48.6,731.0 L48.6,700.0 Z" fill="none" stroke="#CC0000" stroke-width="0.75" stroke-linejoin="miter"/>
<path d="M228.6,700.0 L371.5,700.0 L371.5,731.0 L380.0,731.0 L380.0,789.1 L371.5,789.1 L371.5,827.8 L380.0,827.8 L380.0,885.8 L371.5,885.8 L371.5,924.5 L380.0,924.5 L380.0,982.6 L371.5,982.6 L371.5,1001.9 L357.2,1001.9 L357.2,1013.5 L328.6,1013.5 L328.6,1001.9 L314.3,1001.9 L314.3,1013.5 L285.7,1013.5 L285.7,1001.9 L271.5,1001.9 L271.5,1013.5 L242.9,1013.5 L242.9,1001.9 L228.6,1001.9 L228.6,982.6 L220.0,982.6 L220.0,924.5 L228.6,924.5 L228.6,885.8 L220.0,885.8 L220.0,827.8 L228.6,827.8 L228.6,789.1 L220.0,789.1 L220.0,731.0 L228.6,731.0 L228.6,700.0 Z" fill="none" stroke="#CC0000" stroke-width="0.75" stroke-linejoin="miter"/>
<path d="M51.6,1033.5 L71.0,1033.5 L71.0,1044.3 L129.1,1044.3 L129.1,1033.5 L167.8,1033.5 L167.8,1044.3 L225.8,1044.3 L225.8,1033.5 L264.5,1033.5 L264.5,1044.3 L322.6,1044.3 L322.6,1033.5 L341.9,1033.5 L341.9,1042.5 L353.5,1042.5 L353.5,1060.4 L341.9,1060.4 L341.9,1069.3 L353.5,1069.3 L353.5,1087.2 L341.9,1087.2 L341.9,1096.2 L353.5,1096.2 L353.5,1114.1 L341.9,1114.1 L341.9,1123.0 L322.6,1123.0 L322.6,1112.3 L264.5,1112.3 L264.5,1123.0 L225.8,1123.0 L225.8,1112.3 L167.8,1112.3 L167.8,1123.0 L129.1,1123.0 L129.1,1112.3 L71.0,1112.3 L71.0,1123.0 L51.6,1123.0 L51.6,1114.1 L40.0,1114.1 L40.0,1096.2 L51.6,1096.2 L51.6,1087.2 L40.0,1087.2 L40.0,1069.3 L51.6,1069.3 L51.6,1060.4 L40.0,1060.4 L40.0,1042.5 L51.6,1042.5 L51.6,1033.5 Z" fill="none" stroke="#CC0000" stroke-width="0.75" stroke-linejoin="miter"/>
<path d="M51.6,1143.0 L71.0,1143.0 L71.0,1153.7 L129.1,1153.7 L129.1,1143.0 L167.8,1143.0 L167.8,1153.7 L225.8,1153.7 L225.8,1143.0 L264.5,1143.0 L264.5,1153.7 L322.6,1153.7 L322.6,1143.0 L341.9,1143.0 L341.9,1151.9 L353.5,1151.9 L353.5,1169.8 L341.9,1169.8 L341.9,1178.8 L353.5,1178.8 L353.5,1196.7 L341.9,1196.7 L341.9,1205.6 L353.5,1205.6 L353.5,1223.5 L341.9,1223.5 L341.9,1232.5 L322.6,1232.5 L322.6,1221.7 L264.5,1221.7 L264.5,1232.5 L225.8,1232.5 L225.8,1221.7 L167.8,1221.7 L167.8,1232.5 L129.1,1232.5 L129.1,1221.7 L71.0,1221.7 L71.0,1232.5 L51.6,1232.5 L51.6,1223.5 L40.0,1223.5 L40.0,1205.6 L51.6,1205.6 L51.6,1196.7 L40.0,1196.7 L40.0,1178.8 L51.6,1178.8 L51.6,1169.8 L40.0,1169.8 L40.0,1151.9 L51.6,1151.9 L51.6,1143.0 Z" fill="none" stroke="#CC0000" stroke-width="0.75" stroke-linejoin="miter"/>
<path d="M373.5,1143.0 L387.8,1143.0 L387.8,1153.7 L416.4,1153.7 L416.4,1143.0 L430.7,1143.0 L430.7,1153.7 L459.2,1153.7 L459.2,1143.0 L473.5,1143.0 L473.5,1153.7 L502.1,1153.7 L502.1,1143.0 L516.4,1143.0 L516.4,1151.9 L507.8,1151.9 L507.8,1169.8 L516.4,1169.8 L516.4,1178.8 L507.8,1178.8 L507.8,1196.7 L516.4,1196.7 L516.4,1205.6 L507.8,1205.6 L507.8,1223.5 L516.4,1223.5 L516.4,1232.5 L502.1,1232.5 L502.1,1221.7 L473.5,1221.7 L473.5,1232.5 L459.2,1232.5 L459.2,1221.7 L430.7,1221.7 L430.7,1232.5 L416.4,1232.5 L416.4,1221.7 L387.8,1221.7 L387.8,1232.5 L373.5,1232.5 L373.5,1223.5 L382.1,1223.5 L382.1,1205.6 L373.5,1205.6 L373.5,1196.7 L382.1,1196.7 L382.1,1178.8 L373.5,1178.8 L373.5,1169.8 L382.1,1169.8 L382.1,1151.9 L373.5,1151.9 L373.5,1143.0 Z" fill="none" stroke="#CC0000" stroke-width="0.75" stroke-linejoin="miter"/>
<path d="M40.0,1252.5 L182.9,1252.5 L182.9,1342.0 L40.0,1342.0 Z" fill="none" stroke="#0066CC" stroke-width="0.75" stroke-linejoin="miter"/>

<text x="36" y="26" font-size="12" fill="#000000">Outer sleeve (224x324x100mm, right wall removed)</text>
<text x="40" y="1238.5" font-size="12" fill="#000000">Inner box (160x314x90mm, ~4.5mm clearance/dim, flat top in blue)</text>

</svg>