<?xml version="1.0" encoding="UTF-8"?>
<svg id="Layer_1" xmlns="http://www.w3.org/2000/svg" version="1.1" viewBox="0 0 316.33 455.25">
  <!-- Generator: Adobe Illustrator 30.6.0, SVG Export Plug-In . SVG Version: 2.1.4 Build 109)  -->
  <defs>
    <style>
      .st0 {
        fill: none;
        stroke: #c00;
        stroke-width: .75px;
      }
    </style>
  </defs>
  <path class="st0" d="M210.2,206.58h-12v40h12v60h-12v20"/>
  <path class="st0" d="M118.2,23.33v12h20v-12h40v12h20v20h12v60h-12v40h12"/>
  <path class="st0" d="M.38,155.39h12v-40H.38v-60h12v-20h20v-12h40v12h20v-12"/>
  <path class="st0" d="M12.38,306.65H.38v-60h12v-40H.38"/>
  <path class="st0" d="M132.05,0"/>
  <path class="st0" d="M91.88,0"/>
  <line class="st0" x1="92.38" y1="23.39" x2="118.2" y2="23.39"/>
  <line class="st0" x1=".38" y1="155.15" x2=".38" y2="206.65"/>
  <line class="st0" x1="210.2" y1="155.33" x2="210.2" y2="206.82"/>
  <path class="st0" d="M12.38,306.65v20"/>
  <path class="st0" d="M32.38,326.58H12.38"/>
  <path class="st0" d="M32.38,338.58v-12"/>
  <path class="st0" d="M72.38,338.58h-40"/>
  <path class="st0" d="M72.38,326.58v12"/>
  <path class="st0" d="M92.38,326.58h-20"/>
  <path class="st0" d="M92.38,338.58v-12"/>
  <g>
    <path class="st0" d="M118.2,326.58v12"/>
    <path class="st0" d="M138.2,326.58h-20"/>
    <path class="st0" d="M178.2,338.58h-40"/>
    <path class="st0" d="M178.2,326.58v12"/>
    <path class="st0" d="M198.2,326.58h-20"/>
    <path class="st0" d="M138.2,326.58v12"/>
  </g>
  <line class="st0" x1="92.38" y1="338.58" x2="118.2" y2="338.58"/>
  <path class="st0" d="M210.2,212.49"/>
  <path class="st0" d="M210.2,206.82"/>
  <g>
    <path class="st0" d="M307.14,387.2"/>
    <path class="st0" d="M315.95,369.05"/>
    <path class="st0" d="M92.38,381.05"/>
    <path class="st0" d="M32.38,381.05"/>
    <path class="st0" d="M.38,409.05h12v-10H.38v-20h12v-10h291.57"/>
    <path class="st0" d="M132.38,442.88v12h-40v-12h-60v12H12.38v-10H.38v-20h12v-10H.38"/>
    <path class="st0" d="M283.87,454.77v-12h-60v12h-40v-12"/>
    <path class="st0" d="M315.87,454.77"/>
    <line class="st0" x1=".38" y1="409.05" x2=".38" y2="414.88"/>
    <path class="st0" d="M315.87,424.99v20"/>
    <path class="st0" d="M303.87,424.99h12"/>
    <path class="st0" d="M303.87,414.99v10"/>
    <path class="st0" d="M315.87,414.99h-12"/>
    <path class="st0" d="M303.95,379.05h12"/>
    <path class="st0" d="M315.95,399.05h-12"/>
    <path class="st0" d="M315.95,379.05v20"/>
    <path class="st0" d="M303.95,369.05v10"/>
    <path class="st0" d="M303.95,369.05"/>
    <path class="st0" d="M283.95,369.05"/>
    <path class="st0" d="M303.95,399.05v10"/>
    <path class="st0" d="M315.95,409.05h-12"/>
    <path class="st0" d="M283.87,454.77h20"/>
    <path class="st0" d="M303.87,444.77v10"/>
    <path class="st0" d="M303.87,444.77h12"/>
    <line class="st0" x1="132.38" y1="442.77" x2="183.87" y2="442.76"/>
    <line class="st0" x1="315.87" y1="409.11" x2="315.87" y2="414.94"/>
  </g>
</svg>