<svg xmlns="http://www.w3.org/2000/svg" width="660" height="983" viewBox="0 0 660 983">
<rect width="100%" height="100%" fill="white"/>
<path d="M48.00,48.00 L68.00,48.00 L68.00,45.00 L108.00,45.00 L108.00,48.00 L128.00,48.00 L128.00,45.00 L168.00,45.00 L168.00,48.00 L188.00,48.00 L188.00,45.00 L228.00,45.00 L228.00,48.00 L248.00,48.00 L248.00,68.00 L251.00,68.00 L251.00,128.00 L248.00,128.00 L248.00,168.00 L251.00,168.00 L251.00,228.00 L248.00,228.00 L248.00,268.00 L251.00,268.00 L251.00,328.00 L248.00,328.00 L248.00,360.00 L48.00,360.00 L48.00,328.00 L45.00,328.00 L45.00,268.00 L48.00,268.00 L48.00,228.00 L45.00,228.00 L45.00,168.00 L48.00,168.00 L48.00,128.00 L45.00,128.00 L45.00,68.00 L48.00,68.00 L48.00,48.00 Z" fill="none" stroke="#CC0000" stroke-width="0.75" stroke-linejoin="miter"/>
<path d="M294.00,48.00 L314.00,48.00 L314.00,45.00 L354.00,45.00 L354.00,48.00 L374.00,48.00 L374.00,45.00 L414.00,45.00 L414.00,48.00 L434.00,48.00 L434.00,45.00 L474.00,45.00 L474.00,48.00 L494.00,48.00 L494.00,68.00 L497.00,68.00 L497.00,128.00 L494.00,128.00 L494.00,168.00 L497.00,168.00 L497.00,228.00 L494.00,228.00 L494.00,268.00 L497.00,268.00 L497.00,328.00 L494.00,328.00 L494.00,360.00 L294.00,360.00 L294.00,328.00 L291.00,328.00 L291.00,268.00 L294.00,268.00 L294.00,228.00 L291.00,228.00 L291.00,168.00 L294.00,168.00 L294.00,128.00 L291.00,128.00 L291.00,68.00 L294.00,68.00 L294.00,48.00 Z" fill="none" stroke="#CC0000" stroke-width="0.75" stroke-linejoin="miter"/>
<path d="M48.00,394.00 L68.00,394.00 L68.00,397.00 L128.00,397.00 L128.00,394.00 L168.00,394.00 L168.00,397.00 L228.00,397.00 L228.00,394.00 L268.00,394.00 L268.00,397.00 L328.00,397.00 L328.00,394.00 L360.00,394.00 L360.00,494.00 L357.00,494.00 L337.00,494.00 L337.00,491.00 L277.00,491.00 L277.00,494.00 L237.00,494.00 L237.00,491.00 L177.00,491.00 L177.00,494.00 L137.00,494.00 L137.00,491.00 L77.00,491.00 L77.00,494.00 L57.00,494.00 L57.00,484.00 L54.00,484.00 L54.00,464.00 L57.00,464.00 L57.00,454.00 L54.00,454.00 L54.00,434.00 L57.00,434.00 L57.00,424.00 L54.00,424.00 L54.00,404.00 L57.00,404.00 L57.00,394.00 Z" fill="none" stroke="#CC0000" stroke-width="0.75" stroke-linejoin="miter"/>
<path d="M48.00,524.00 L68.00,524.00 L68.00,527.00 L128.00,527.00 L128.00,524.00 L168.00,524.00 L168.00,527.00 L228.00,527.00 L228.00,524.00 L268.00,524.00 L268.00,527.00 L328.00,527.00 L328.00,524.00 L360.00,524.00 L360.00,624.00 L357.00,624.00 L337.00,624.00 L337.00,621.00 L277.00,621.00 L277.00,624.00 L237.00,624.00 L237.00,621.00 L177.00,621.00 L177.00,624.00 L137.00,624.00 L137.00,621.00 L77.00,621.00 L77.00,624.00 L57.00,624.00 L57.00,614.00 L54.00,614.00 L54.00,594.00 L57.00,594.00 L57.00,584.00 L54.00,584.00 L54.00,564.00 L57.00,564.00 L57.00,554.00 L54.00,554.00 L54.00,534.00 L57.00,534.00 L57.00,524.00 Z" fill="none" stroke="#CC0000" stroke-width="0.75" stroke-linejoin="miter"/>
<path d="M394.00,394.00 L414.00,394.00 L414.00,397.00 L454.00,397.00 L454.00,394.00 L474.00,394.00 L474.00,397.00 L514.00,397.00 L514.00,394.00 L534.00,394.00 L534.00,397.00 L574.00,397.00 L574.00,394.00 L594.00,394.00 L594.00,404.00 L591.00,404.00 L591.00,424.00 L594.00,424.00 L594.00,434.00 L591.00,434.00 L591.00,454.00 L594.00,454.00 L594.00,464.00 L591.00,464.00 L591.00,484.00 L594.00,484.00 L594.00,494.00 L574.00,494.00 L574.00,491.00 L534.00,491.00 L534.00,494.00 L514.00,494.00 L514.00,491.00 L474.00,491.00 L474.00,494.00 L454.00,494.00 L454.00,491.00 L414.00,491.00 L414.00,494.00 L394.00,494.00 L394.00,484.00 L397.00,484.00 L397.00,464.00 L394.00,464.00 L394.00,454.00 L397.00,454.00 L397.00,434.00 L394.00,434.00 L394.00,424.00 L397.00,424.00 L397.00,404.00 L394.00,404.00 L394.00,394.00 Z" fill="none" stroke="#CC0000" stroke-width="0.75" stroke-linejoin="miter"/>
<path d="M43.00,703.00 L62.06,703.00 L62.06,700.00 L100.19,700.00 L100.19,703.00 L119.25,703.00 L119.25,700.00 L157.37,700.00 L157.37,703.00 L176.44,703.00 L176.44,700.00 L214.56,700.00 L214.56,703.00 L233.62,703.00 L233.62,712.88 L236.62,712.88 L236.62,742.51 L233.62,742.51 L233.62,762.26 L236.62,762.26 L236.62,791.89 L233.62,791.89 L233.62,811.65 L236.62,811.65 L236.62,841.28 L233.62,841.28 L233.62,851.15 L214.56,851.15 L214.56,854.15 L176.44,854.15 L176.44,851.15 L157.37,851.15 L157.37,854.15 L119.25,854.15 L119.25,851.15 L100.19,851.15 L100.19,854.15 L62.06,854.15 L62.06,851.15 L43.00,851.15 L43.00,841.28 L40.00,841.28 L40.00,811.65 L43.00,811.65 L43.00,791.89 L40.00,791.89 L40.00,762.26 L43.00,762.26 L43.00,742.51 L40.00,742.51 L40.00,712.88 L43.00,712.88 L43.00,703.00 Z" fill="none" stroke="#CC0000" stroke-width="0.75" stroke-linejoin="miter"/>
<path d="M259.62,700.00 L397.90,700.00 L407.77,700.00 L407.77,708.95 L410.77,708.95 L410.77,726.85 L407.77,726.85 L407.77,735.80 L410.77,735.80 L410.77,753.70 L407.77,753.70 L407.77,762.65 L410.77,762.65 L410.77,780.55 L407.77,780.55 L407.77,789.50 L397.90,789.50 L397.90,786.50 L368.27,786.50 L368.27,789.50 L348.51,789.50 L348.51,786.50 L318.88,786.50 L318.88,789.50 L299.13,789.50 L299.13,786.50 L269.50,786.50 L269.50,789.50 L259.62,789.50 L259.62,780.55 L256.62,780.55 L256.62,762.65 L259.62,762.65 L259.62,753.70 L256.62,753.70 L256.62,735.80 L259.62,735.80 L259.62,726.85 L256.62,726.85 L256.62,708.95 L259.62,708.95 L259.62,700.00 Z" fill="none" stroke="#CC0000" stroke-width="0.75" stroke-linejoin="miter"/>
<path d="M433.77,700.00 L572.05,700.00 L581.92,700.00 L581.92,708.95 L584.92,708.95 L584.92,726.85 L581.92,726.85 L581.92,735.80 L584.92,735.80 L584.92,753.70 L581.92,753.70 L581.92,762.65 L584.92,762.65 L584.92,780.55 L581.92,780.55 L581.92,789.50 L572.05,789.50 L572.05,786.50 L542.42,786.50 L542.42,789.50 L522.66,789.50 L522.66,786.50 L493.03,786.50 L493.03,789.50 L473.28,789.50 L473.28,786.50 L443.65,786.50 L443.65,789.50 L433.77,789.50 L433.77,780.55 L430.77,780.55 L430.77,762.65 L433.77,762.65 L433.77,753.70 L430.77,753.70 L430.77,735.80 L433.77,735.80 L433.77,726.85 L430.77,726.85 L430.77,708.95 L433.77,708.95 L433.77,700.00 Z" fill="none" stroke="#CC0000" stroke-width="0.75" stroke-linejoin="miter"/>
<path d="M40.00,874.15 L230.63,874.15 L230.63,883.10 L227.63,883.10 L227.63,901.00 L230.63,901.00 L230.63,909.95 L227.63,909.95 L227.63,927.85 L230.63,927.85 L230.63,936.80 L227.63,936.80 L227.63,954.70 L230.63,954.70 L230.63,963.65 L211.56,963.65 L211.56,960.65 L173.44,960.65 L173.44,963.65 L154.38,963.65 L154.38,960.65 L116.25,960.65 L116.25,963.65 L97.19,963.65 L97.19,960.65 L59.06,960.65 L59.06,963.65 L40.00,963.65 L40.00,954.70 L43.00,954.70 L43.00,936.80 L40.00,936.80 L40.00,927.85 L43.00,927.85 L43.00,909.95 L40.00,909.95 L40.00,901.00 L43.00,901.00 L43.00,883.10 L40.00,883.10 L40.00,874.15 Z" fill="none" stroke="#CC0000" stroke-width="0.75" stroke-linejoin="miter"/>
<path d="M250.63,874.15 L269.69,874.15 L269.69,877.15 L307.82,877.15 L307.82,874.15 L326.88,874.15 L326.88,877.15 L365.01,877.15 L365.01,874.15 L384.07,874.15 L384.07,877.15 L422.19,877.15 L422.19,874.15 L441.26,874.15 L441.26,883.10 L438.26,883.10 L438.26,901.00 L441.26,901.00 L441.26,909.95 L438.26,909.95 L438.26,927.85 L441.26,927.85 L441.26,936.80 L438.26,936.80 L438.26,954.70 L441.26,954.70 L441.26,963.65 L422.19,963.65 L422.19,960.65 L384.07,960.65 L384.07,963.65 L365.01,963.65 L365.01,960.65 L326.88,960.65 L326.88,963.65 L307.82,963.65 L307.82,960.65 L269.69,960.65 L269.69,963.65 L250.63,963.65 L250.63,954.70 L253.63,954.70 L253.63,936.80 L250.63,936.80 L250.63,927.85 L253.63,927.85 L253.63,909.95 L250.63,909.95 L250.63,901.00 L253.63,901.00 L253.63,883.10 L250.63,883.10 L250.63,874.15 Z" fill="none" stroke="#CC0000" stroke-width="0.75" stroke-linejoin="miter"/>

<text x="36" y="26" font-size="12" fill="#000000">Outer sleeve (224x324x100mm, bottom removed) -- 3mm finger depth</text>
<text x="40" y="860.15" font-size="12" fill="#000000">Inner box (214x160x90mm) -- 3mm finger depth</text>

</svg>