<svg xmlns="http://www.w3.org/2000/svg" width="642" height="672" viewBox="0 0 642 672">
<rect width="100%" height="100%" fill="white"/>
<path d="M48.0,48.0 L68.0,48.0 L68.0,40.0 L108.0,40.0 L108.0,48.0 L128.0,48.0 L128.0,40.0 L168.0,40.0 L168.0,48.0 L188.0,48.0 L188.0,40.0 L228.0,40.0 L228.0,48.0 L248.0,48.0 L248.0,68.0 L256.0,68.0 L256.0,128.0 L248.0,128.0 L248.0,168.0 L256.0,168.0 L256.0,228.0 L248.0,228.0 L248.0,268.0 L256.0,268.0 L256.0,328.0 L248.0,328.0 L248.0,348.0 L228.0,348.0 L228.0,356.0 L188.0,356.0 L188.0,348.0 L168.0,348.0 L168.0,356.0 L128.0,356.0 L128.0,348.0 L108.0,348.0 L108.0,356.0 L68.0,356.0 L68.0,348.0 L48.0,348.0 L48.0,328.0 L40.0,328.0 L40.0,268.0 L48.0,268.0 L48.0,228.0 L40.0,228.0 L40.0,168.0 L48.0,168.0 L48.0,128.0 L40.0,128.0 L40.0,68.0 L48.0,68.0 L48.0,48.0 Z" fill="none" stroke="#CC0000" stroke-width="0.75" stroke-linejoin="miter"/>
<path d="M294.0,48.0 L314.0,48.0 L314.0,40.0 L354.0,40.0 L354.0,48.0 L374.0,48.0 L374.0,40.0 L414.0,40.0 L414.0,48.0 L434.0,48.0 L434.0,40.0 L474.0,40.0 L474.0,48.0 L494.0,48.0 L494.0,68.0 L502.0,68.0 L502.0,128.0 L494.0,128.0 L494.0,168.0 L502.0,168.0 L502.0,228.0 L494.0,228.0 L494.0,268.0 L502.0,268.0 L502.0,328.0 L494.0,328.0 L494.0,348.0 L474.0,348.0 L474.0,356.0 L434.0,356.0 L434.0,348.0 L414.0,348.0 L414.0,356.0 L374.0,356.0 L374.0,348.0 L354.0,348.0 L354.0,356.0 L314.0,356.0 L314.0,348.0 L294.0,348.0 L294.0,328.0 L286.0,328.0 L286.0,268.0 L294.0,268.0 L294.0,228.0 L286.0,228.0 L286.0,168.0 L294.0,168.0 L294.0,128.0 L286.0,128.0 L286.0,68.0 L294.0,68.0 L294.0,48.0 Z" fill="none" stroke="#CC0000" stroke-width="0.75" stroke-linejoin="miter"/>
<path d="M48.0,394.0 L68.0,394.0 L68.0,402.0 L128.0,402.0 L128.0,394.0 L168.0,394.0 L168.0,402.0 L228.0,402.0 L228.0,394.0 L268.0,394.0 L268.0,402.0 L328.0,402.0 L328.0,394.0 L348.0,394.0 L348.0,404.0 L356.0,404.0 L356.0,424.0 L348.0,424.0 L348.0,434.0 L356.0,434.0 L356.0,454.0 L348.0,454.0 L348.0,464.0 L356.0,464.0 L356.0,484.0 L348.0,484.0 L348.0,494.0 L328.0,494.0 L328.0,486.0 L268.0,486.0 L268.0,494.0 L228.0,494.0 L228.0,486.0 L168.0,486.0 L168.0,494.0 L128.0,494.0 L128.0,486.0 L68.0,486.0 L68.0,494.0 L48.0,494.0 L48.0,484.0 L40.0,484.0 L40.0,464.0 L48.0,464.0 L48.0,454.0 L40.0,454.0 L40.0,434.0 L48.0,434.0 L48.0,424.0 L40.0,424.0 L40.0,404.0 L48.0,404.0 L48.0,394.0 Z" fill="none" stroke="#CC0000" stroke-width="0.75" stroke-linejoin="miter"/>
<path d="M48.0,524.0 L68.0,524.0 L68.0,532.0 L128.0,532.0 L128.0,524.0 L168.0,524.0 L168.0,532.0 L228.0,532.0 L228.0,524.0 L268.0,524.0 L268.0,532.0 L328.0,532.0 L328.0,524.0 L348.0,524.0 L348.0,534.0 L356.0,534.0 L356.0,554.0 L348.0,554.0 L348.0,564.0 L356.0,564.0 L356.0,584.0 L348.0,584.0 L348.0,594.0 L356.0,594.0 L356.0,614.0 L348.0,614.0 L348.0,624.0 L328.0,624.0 L328.0,616.0 L268.0,616.0 L268.0,624.0 L228.0,624.0 L228.0,616.0 L168.0,616.0 L168.0,624.0 L128.0,624.0 L128.0,616.0 L68.0,616.0 L68.0,624.0 L48.0,624.0 L48.0,614.0 L40.0,614.0 L40.0,594.0 L48.0,594.0 L48.0,584.0 L40.0,584.0 L40.0,564.0 L48.0,564.0 L48.0,554.0 L40.0,554.0 L40.0,534.0 L48.0,534.0 L48.0,524.0 Z" fill="none" stroke="#CC0000" stroke-width="0.75" stroke-linejoin="miter"/>
<path d="M394.0,394.0 L414.0,394.0 L414.0,402.0 L454.0,402.0 L454.0,394.0 L474.0,394.0 L474.0,402.0 L514.0,402.0 L514.0,394.0 L534.0,394.0 L534.0,402.0 L574.0,402.0 L574.0,394.0 L594.0,394.0 L594.0,404.0 L586.0,404.0 L586.0,424.0 L594.0,424.0 L594.0,434.0 L586.0,434.0 L586.0,454.0 L594.0,454.0 L594.0,464.0 L586.0,464.0 L586.0,484.0 L594.0,484.0 L594.0,494.0 L574.0,494.0 L574.0,486.0 L534.0,486.0 L534.0,494.0 L514.0,494.0 L514.0,486.0 L474.0,486.0 L474.0,494.0 L454.0,494.0 L454.0,486.0 L414.0,486.0 L414.0,494.0 L394.0,494.0 L394.0,484.0 L402.0,484.0 L402.0,464.0 L394.0,464.0 L394.0,454.0 L402.0,454.0 L402.0,434.0 L394.0,434.0 L394.0,424.0 L402.0,424.0 L402.0,404.0 L394.0,404.0 L394.0,394.0 Z" fill="none" stroke="#CC0000" stroke-width="0.75" stroke-linejoin="miter"/>
<path d="M394.0,524.0 L414.0,524.0 L414.0,532.0 L454.0,532.0 L454.0,524.0 L474.0,524.0 L474.0,532.0 L514.0,532.0 L514.0,524.0 L534.0,524.0 L534.0,532.0 L574.0,532.0 L574.0,524.0 L594.0,524.0 L594.0,534.0 L586.0,534.0 L586.0,554.0 L594.0,554.0 L594.0,564.0 L586.0,564.0 L586.0,584.0 L594.0,584.0 L594.0,594.0 L586.0,594.0 L586.0,614.0 L594.0,614.0 L594.0,624.0 L574.0,624.0 L574.0,616.0 L534.0,616.0 L534.0,624.0 L514.0,624.0 L514.0,616.0 L474.0,616.0 L474.0,624.0 L454.0,624.0 L454.0,616.0 L414.0,616.0 L414.0,624.0 L394.0,624.0 L394.0,614.0 L402.0,614.0 L402.0,594.0 L394.0,594.0 L394.0,584.0 L402.0,584.0 L402.0,564.0 L394.0,564.0 L394.0,554.0 L402.0,554.0 L402.0,534.0 L394.0,534.0 L394.0,524.0 Z" fill="none" stroke="#CC0000" stroke-width="0.75" stroke-linejoin="miter"/>
</svg>