<svg xmlns="http://www.w3.org/2000/svg" width="259.175mm" height="244.175mm" viewBox="0 0 259.175 244.175">
  <title>Outer camera shell - RIGHT SIDE OPEN - cut only</title>
  <metadata><![CDATA[{
  "units": "mm",
  "material_thickness_mm": 3.175,
  "assumed_kerf_mm": 0.15,
  "clearance_each_sliding_side_mm": 0.25,
  "outer_box_external_mm": {
    "width": 110.0,
    "height": 70.0,
    "depth": 45.0
  },
  "outer_shell_internal_available_mm": {
    "slide_length": 106.825,
    "height": 63.65,
    "depth": 38.65
  },
  "drawer_body_external_mm": {
    "slide_length": 106.325,
    "height": 63.15,
    "depth": 38.15
  },
  "drawer_open_face_mm": "slide_length x height",
  "drawer_open_face_area_mm2": 6714.424,
  "verification": "closed paths only; no self-intersections; no cross-panel intersections in flat layout",
  "panel_names": [
    "outer_front_camera_face",
    "outer_back_camera_face",
    "outer_top_panel",
    "outer_bottom_panel",
    "outer_left_closed_side"
  ]
}]]></metadata>
  <g id="CUT_PATHS" fill="none" stroke="#000000" stroke-width="0.1" stroke-linejoin="miter" stroke-linecap="butt">
    <path id="outer_front_camera_face" d="M 11.175,8.000 L 14.826,8.000 L 14.826,11.175 L 26.237,11.175 L 26.237,8.000 L 37.648,8.000 L 37.648,11.175 L 49.059,11.175 L 49.059,8.000 L 60.470,8.000 L 60.470,11.175 L 71.880,11.175 L 71.880,8.000 L 83.291,8.000 L 83.291,11.175 L 94.702,11.175 L 94.702,8.000 L 106.113,8.000 L 106.113,11.175 L 117.524,11.175 L 117.524,8.000 L 121.175,8.000 L 121.175,78.000 L 117.524,78.000 L 117.524,74.825 L 106.113,74.825 L 106.113,78.000 L 94.702,78.000 L 94.702,74.825 L 83.291,74.825 L 83.291,78.000 L 71.880,78.000 L 71.880,74.825 L 60.470,74.825 L 60.470,78.000 L 49.059,78.000 L 49.059,74.825 L 37.648,74.825 L 37.648,78.000 L 26.237,78.000 L 26.237,74.825 L 14.826,74.825 L 14.826,78.000 L 11.175,78.000 L 11.175,74.349 L 14.350,74.349 L 14.350,65.392 L 11.175,65.392 L 11.175,56.435 L 14.350,56.435 L 14.350,47.478 L 11.175,47.478 L 11.175,38.522 L 14.350,38.522 L 14.350,29.565 L 11.175,29.565 L 11.175,20.608 L 14.350,20.608 L 14.350,11.651 L 11.175,11.651 Z"/>
    <path id="outer_back_camera_face" d="M 141.175,8.000 L 144.826,8.000 L 144.826,11.175 L 156.237,11.175 L 156.237,8.000 L 167.648,8.000 L 167.648,11.175 L 179.059,11.175 L 179.059,8.000 L 190.470,8.000 L 190.470,11.175 L 201.880,11.175 L 201.880,8.000 L 213.291,8.000 L 213.291,11.175 L 224.702,11.175 L 224.702,8.000 L 236.113,8.000 L 236.113,11.175 L 247.524,11.175 L 247.524,8.000 L 251.175,8.000 L 251.175,78.000 L 247.524,78.000 L 247.524,74.825 L 236.113,74.825 L 236.113,78.000 L 224.702,78.000 L 224.702,74.825 L 213.291,74.825 L 213.291,78.000 L 201.880,78.000 L 201.880,74.825 L 190.470,74.825 L 190.470,78.000 L 179.059,78.000 L 179.059,74.825 L 167.648,74.825 L 167.648,78.000 L 156.237,78.000 L 156.237,74.825 L 144.826,74.825 L 144.826,78.000 L 141.175,78.000 L 141.175,74.349 L 144.350,74.349 L 144.350,65.392 L 141.175,65.392 L 141.175,56.435 L 144.350,56.435 L 144.350,47.478 L 141.175,47.478 L 141.175,38.522 L 144.350,38.522 L 144.350,29.565 L 141.175,29.565 L 141.175,20.608 L 144.350,20.608 L 144.350,11.651 L 141.175,11.651 Z"/>
    <path id="outer_top_panel" d="M 11.175,98.000 L 14.826,98.000 L 14.826,94.825 L 26.237,94.825 L 26.237,98.000 L 37.648,98.000 L 37.648,94.825 L 49.059,94.825 L 49.059,98.000 L 60.470,98.000 L 60.470,94.825 L 71.880,94.825 L 71.880,98.000 L 83.291,98.000 L 83.291,94.825 L 94.702,94.825 L 94.702,98.000 L 106.113,98.000 L 106.113,94.825 L 117.524,94.825 L 117.524,98.000 L 121.175,98.000 L 121.175,143.000 L 117.524,143.000 L 117.524,146.175 L 106.113,146.175 L 106.113,143.000 L 94.702,143.000 L 94.702,146.175 L 83.291,146.175 L 83.291,143.000 L 71.880,143.000 L 71.880,146.175 L 60.470,146.175 L 60.470,143.000 L 49.059,143.000 L 49.059,146.175 L 37.648,146.175 L 37.648,143.000 L 26.237,143.000 L 26.237,146.175 L 14.826,146.175 L 14.826,143.000 L 11.175,143.000 L 11.175,139.349 L 14.350,139.349 L 14.350,131.809 L 11.175,131.809 L 11.175,124.270 L 14.350,124.270 L 14.350,116.730 L 11.175,116.730 L 11.175,109.191 L 14.350,109.191 L 14.350,101.651 L 11.175,101.651 Z"/>
    <path id="outer_bottom_panel" d="M 141.175,98.000 L 144.826,98.000 L 144.826,94.825 L 156.237,94.825 L 156.237,98.000 L 167.648,98.000 L 167.648,94.825 L 179.059,94.825 L 179.059,98.000 L 190.470,98.000 L 190.470,94.825 L 201.880,94.825 L 201.880,98.000 L 213.291,98.000 L 213.291,94.825 L 224.702,94.825 L 224.702,98.000 L 236.113,98.000 L 236.113,94.825 L 247.524,94.825 L 247.524,98.000 L 251.175,98.000 L 251.175,143.000 L 247.524,143.000 L 247.524,146.175 L 236.113,146.175 L 236.113,143.000 L 224.702,143.000 L 224.702,146.175 L 213.291,146.175 L 213.291,143.000 L 201.880,143.000 L 201.880,146.175 L 190.470,146.175 L 190.470,143.000 L 179.059,143.000 L 179.059,146.175 L 167.648,146.175 L 167.648,143.000 L 156.237,143.000 L 156.237,146.175 L 144.826,146.175 L 144.826,143.000 L 141.175,143.000 L 141.175,139.349 L 144.350,139.349 L 144.350,131.809 L 141.175,131.809 L 141.175,124.270 L 144.350,124.270 L 144.350,116.730 L 141.175,116.730 L 141.175,109.191 L 144.350,109.191 L 144.350,101.651 L 141.175,101.651 Z"/>
    <path id="outer_left_closed_side" d="M 11.175,163.000 L 14.826,163.000 L 14.826,159.825 L 22.366,159.825 L 22.366,163.000 L 29.905,163.000 L 29.905,159.825 L 37.445,159.825 L 37.445,163.000 L 44.984,163.000 L 44.984,159.825 L 52.524,159.825 L 52.524,163.000 L 52.524,163.000 L 56.175,163.000 L 56.175,166.651 L 59.350,166.651 L 59.350,175.608 L 56.175,175.608 L 56.175,184.565 L 59.350,184.565 L 59.350,193.522 L 56.175,193.522 L 56.175,202.478 L 59.350,202.478 L 59.350,211.435 L 56.175,211.435 L 56.175,220.392 L 59.350,220.392 L 59.350,229.349 L 56.175,229.349 L 56.175,233.000 L 52.524,233.000 L 52.524,236.175 L 44.984,236.175 L 44.984,233.000 L 37.445,233.000 L 37.445,236.175 L 29.905,236.175 L 29.905,233.000 L 22.366,233.000 L 22.366,236.175 L 14.826,236.175 L 14.826,233.000 L 14.826,233.000 L 11.175,233.000 L 11.175,229.349 L 8.000,229.349 L 8.000,220.392 L 11.175,220.392 L 11.175,211.435 L 8.000,211.435 L 8.000,202.478 L 11.175,202.478 L 11.175,193.522 L 8.000,193.522 L 8.000,184.565 L 11.175,184.565 L 11.175,175.608 L 8.000,175.608 L 8.000,166.651 L 11.175,166.651 Z"/>
  </g>
</svg>